<svg width="634.9" height="81.9" viewBox="0 0 634.9 81.9" xmlns="http://www.w3.org/2000/svg"><g id="svgGroup" stroke-linecap="round" fill-rule="evenodd" font-size="9pt" stroke="#ffffff" stroke-width="0.25mm" fill="#fffbfb" style="stroke:#ffffff;stroke-width:0.25mm;fill:#fffbfb"><path d="M 187.5 81 L 175.7 81 L 166.8 23.2 L 178.1 23.2 L 183.2 60.7 L 189.2 23.2 L 199.3 23.2 L 205 61.1 L 210.5 23.2 L 221.2 23.2 L 212.1 81 L 200.6 81 L 194.2 44.5 L 187.5 81 Z M 13.9 81 L 0 81 L 16.2 0 L 32 0 L 48.2 81 L 34.5 81 L 31.3 62.3 L 17.2 62.3 L 13.9 81 Z M 79.5 60.8 L 79.5 43.4 A 40.48 40.48 0 0 1 79.802 38.309 Q 80.133 35.705 80.825 33.491 A 21.985 21.985 0 0 1 81.35 32 A 14.834 14.834 0 0 1 84.541 26.984 A 14.157 14.157 0 0 1 87.3 24.8 A 15.768 15.768 0 0 1 91.652 23.016 Q 94.468 22.3 98 22.3 A 32.38 32.38 0 0 1 102.166 22.552 Q 105.62 23.001 108.15 24.25 Q 112.1 26.2 113.9 30.15 Q 115.384 33.406 115.644 38.054 A 36.543 36.543 0 0 1 115.7 40.1 L 115.7 44.9 L 102.9 44.9 L 102.9 39.8 A 32.683 32.683 0 0 0 102.856 38.047 Q 102.759 36.253 102.45 35.05 A 5.987 5.987 0 0 0 102.085 34.009 Q 101.814 33.429 101.435 33.015 A 3.069 3.069 0 0 0 100.9 32.55 A 4.012 4.012 0 0 0 99.67 31.999 Q 98.928 31.8 98 31.8 A 5.546 5.546 0 0 0 96.754 31.932 A 3.784 3.784 0 0 0 95.1 32.75 A 3.872 3.872 0 0 0 94.268 33.79 Q 93.993 34.277 93.792 34.894 A 8.973 8.973 0 0 0 93.55 35.8 A 16.172 16.172 0 0 0 93.313 37.269 Q 93.13 38.805 93.104 40.9 A 57.107 57.107 0 0 0 93.1 41.6 L 93.1 62.8 A 41.167 41.167 0 0 0 93.166 65.224 Q 93.381 68.857 94.3 70.35 A 3.923 3.923 0 0 0 97.165 72.23 A 5.981 5.981 0 0 0 98.1 72.3 Q 99.445 72.3 100.36 71.893 A 3.206 3.206 0 0 0 101.15 71.4 A 3.821 3.821 0 0 0 102.105 70.129 Q 102.396 69.522 102.55 68.75 A 15.964 15.964 0 0 0 102.763 67.332 Q 102.849 66.539 102.881 65.631 A 32.084 32.084 0 0 0 102.9 64.5 L 102.9 58.3 L 115.7 58.3 L 115.7 63.8 A 30.481 30.481 0 0 1 115.395 68.232 Q 115.039 70.649 114.269 72.686 A 17.537 17.537 0 0 1 113.85 73.7 Q 112 77.8 108.05 79.85 Q 104.775 81.55 100.022 81.84 A 33.164 33.164 0 0 1 98 81.9 Q 93.086 81.9 89.598 80.528 A 14.026 14.026 0 0 1 87.25 79.35 A 14.522 14.522 0 0 1 81.528 72.49 A 17.937 17.937 0 0 1 81.35 72.05 Q 79.5 67.3 79.5 60.8 Z M 606.7 81 L 594.8 81 L 607.4 49.9 L 595.3 23.2 L 608.7 23.2 L 616 39.2 L 622.4 23.2 L 634 23.2 L 621.7 51.8 L 634.9 81 L 621.4 81 L 613.4 63.3 L 606.7 81 Z M 372 81 L 357.2 81 L 357.2 10.9 L 344.3 10.9 L 344.3 0 L 384.7 0 L 384.7 10.9 L 372 10.9 L 372 81 Z M 519.7 76.7 L 519.7 81 L 506.1 81 L 506.1 0 L 519.7 0 L 519.7 27.6 A 21.647 21.647 0 0 1 525.058 23.796 A 20.567 20.567 0 0 1 525.15 23.75 Q 528.1 22.3 531.5 22.3 A 13.856 13.856 0 0 1 534.281 22.564 Q 536.033 22.923 537.405 23.77 A 8.381 8.381 0 0 1 537.9 24.1 A 12.098 12.098 0 0 1 541.7 28.644 A 14.213 14.213 0 0 1 541.8 28.85 Q 543.2 31.8 543.75 35.15 Q 544.3 38.5 544.3 41.6 L 544.3 61.2 Q 544.3 66.9 542.95 71.6 Q 541.6 76.3 538.65 79.1 Q 535.7 81.9 530.9 81.9 Q 527.7 81.9 524.9 80.4 Q 522.1 78.9 519.7 76.7 Z M 227.8 60.8 L 227.8 43.4 A 40.779 40.779 0 0 1 228.074 38.534 Q 228.381 35.983 229.032 33.82 A 21.24 21.24 0 0 1 229.75 31.8 A 14.973 14.973 0 0 1 232.74 27.134 A 13.906 13.906 0 0 1 235.85 24.7 A 16.694 16.694 0 0 1 240.398 22.938 Q 242.425 22.46 244.787 22.34 A 31.895 31.895 0 0 1 246.4 22.3 A 29.722 29.722 0 0 1 250.415 22.554 Q 252.523 22.842 254.248 23.457 A 12.894 12.894 0 0 1 257.15 24.9 A 13.626 13.626 0 0 1 261.922 30.606 A 17.718 17.718 0 0 1 262.65 32.45 A 29.516 29.516 0 0 1 263.774 37.17 Q 264.136 39.454 264.249 42.062 A 56.371 56.371 0 0 1 264.3 44.5 L 264.3 52.7 L 241.3 52.7 L 241.3 64.1 A 23.605 23.605 0 0 0 241.365 65.907 Q 241.434 66.807 241.578 67.573 A 10.402 10.402 0 0 0 241.85 68.7 A 6.291 6.291 0 0 0 242.317 69.842 Q 242.822 70.781 243.6 71.3 A 4.698 4.698 0 0 0 245.438 72.014 A 6.299 6.299 0 0 0 246.5 72.1 Q 247.994 72.1 249.005 71.515 A 3.562 3.562 0 0 0 249.4 71.25 A 4.21 4.21 0 0 0 250.495 69.959 Q 250.787 69.437 250.987 68.792 A 7.323 7.323 0 0 0 251 68.75 Q 251.381 67.493 251.472 65.742 A 22.101 22.101 0 0 0 251.5 64.6 L 251.5 59.8 L 264.2 59.8 L 264.2 63.7 A 28.231 28.231 0 0 1 263.749 68.917 Q 263.195 71.859 261.962 74.168 A 14.204 14.204 0 0 1 259.8 77.2 A 13.708 13.708 0 0 1 254.04 80.797 Q 251.81 81.547 249.082 81.787 A 30.613 30.613 0 0 1 246.4 81.9 A 28.304 28.304 0 0 1 242.038 81.584 Q 239.682 81.216 237.745 80.42 A 14.612 14.612 0 0 1 235.8 79.45 A 14.359 14.359 0 0 1 230.068 72.978 A 17.891 17.891 0 0 1 229.75 72.25 Q 228.027 68.052 227.826 62.331 A 43.764 43.764 0 0 1 227.8 60.8 Z M 69.8 81 L 56.3 81 L 56.3 0 L 69.8 0 L 69.8 81 Z M 287.9 81 L 274.4 81 L 274.4 0 L 287.9 0 L 287.9 81 Z M 313.1 81 L 299.6 81 L 299.6 0 L 313.1 0 L 313.1 81 Z M 495.2 81 L 481.7 81 L 481.7 0 L 495.2 0 L 495.2 81 Z M 123.5 61.8 L 123.5 42.4 A 33.413 33.413 0 0 1 123.838 37.514 Q 124.333 34.172 125.55 31.5 Q 127.6 27 131.7 24.65 A 16.59 16.59 0 0 1 136.188 22.925 Q 138.186 22.456 140.512 22.339 A 31.578 31.578 0 0 1 142.1 22.3 A 27.95 27.95 0 0 1 146.523 22.63 Q 148.987 23.026 151.019 23.894 A 15.325 15.325 0 0 1 152.55 24.65 Q 156.7 27 158.75 31.5 A 21.553 21.553 0 0 1 160.279 36.432 Q 160.8 39.175 160.8 42.4 L 160.8 61.8 A 33.413 33.413 0 0 1 160.462 66.686 Q 159.967 70.028 158.75 72.7 Q 156.7 77.2 152.55 79.55 Q 148.4 81.9 142.1 81.9 A 27.816 27.816 0 0 1 137.684 81.57 Q 134.263 81.019 131.7 79.55 Q 127.6 77.2 125.55 72.7 A 21.553 21.553 0 0 1 124.021 67.768 Q 123.5 65.025 123.5 61.8 Z M 388.7 61.8 L 388.7 42.4 A 33.413 33.413 0 0 1 389.038 37.514 Q 389.533 34.172 390.75 31.5 Q 392.8 27 396.9 24.65 A 16.59 16.59 0 0 1 401.388 22.925 Q 403.386 22.456 405.712 22.339 A 31.578 31.578 0 0 1 407.3 22.3 A 27.95 27.95 0 0 1 411.723 22.63 Q 414.187 23.026 416.219 23.894 A 15.325 15.325 0 0 1 417.75 24.65 Q 421.9 27 423.95 31.5 A 21.553 21.553 0 0 1 425.479 36.432 Q 426 39.175 426 42.4 L 426 61.8 A 33.413 33.413 0 0 1 425.662 66.686 Q 425.167 70.028 423.95 72.7 Q 421.9 77.2 417.75 79.55 Q 413.6 81.9 407.3 81.9 A 27.816 27.816 0 0 1 402.884 81.57 Q 399.463 81.019 396.9 79.55 Q 392.8 77.2 390.75 72.7 A 21.553 21.553 0 0 1 389.221 67.768 Q 388.7 65.025 388.7 61.8 Z M 434.2 61.8 L 434.2 42.4 A 33.413 33.413 0 0 1 434.538 37.514 Q 435.033 34.172 436.25 31.5 Q 438.3 27 442.4 24.65 A 16.59 16.59 0 0 1 446.888 22.925 Q 448.886 22.456 451.212 22.339 A 31.578 31.578 0 0 1 452.8 22.3 A 27.95 27.95 0 0 1 457.223 22.63 Q 459.687 23.026 461.719 23.894 A 15.325 15.325 0 0 1 463.25 24.65 Q 467.4 27 469.45 31.5 A 21.553 21.553 0 0 1 470.979 36.432 Q 471.5 39.175 471.5 42.4 L 471.5 61.8 A 33.413 33.413 0 0 1 471.162 66.686 Q 470.667 70.028 469.45 72.7 Q 467.4 77.2 463.25 79.55 Q 459.1 81.9 452.8 81.9 A 27.816 27.816 0 0 1 448.384 81.57 Q 444.963 81.019 442.4 79.55 Q 438.3 77.2 436.25 72.7 A 21.553 21.553 0 0 1 434.721 67.768 Q 434.2 65.025 434.2 61.8 Z M 552.6 61.8 L 552.6 42.4 A 33.413 33.413 0 0 1 552.938 37.514 Q 553.433 34.172 554.65 31.5 Q 556.7 27 560.8 24.65 A 16.59 16.59 0 0 1 565.288 22.925 Q 567.286 22.456 569.612 22.339 A 31.578 31.578 0 0 1 571.2 22.3 A 27.95 27.95 0 0 1 575.623 22.63 Q 578.087 23.026 580.119 23.894 A 15.325 15.325 0 0 1 581.65 24.65 Q 585.8 27 587.85 31.5 A 21.553 21.553 0 0 1 589.379 36.432 Q 589.9 39.175 589.9 42.4 L 589.9 61.8 A 33.413 33.413 0 0 1 589.562 66.686 Q 589.067 70.028 587.85 72.7 Q 585.8 77.2 581.65 79.55 Q 577.5 81.9 571.2 81.9 A 27.816 27.816 0 0 1 566.784 81.57 Q 563.363 81.019 560.8 79.55 Q 556.7 77.2 554.65 72.7 A 21.553 21.553 0 0 1 553.121 67.768 Q 552.6 65.025 552.6 61.8 Z M 530.7 61.7 L 530.7 41 Q 530.7 38.3 530.3 36.15 A 9.964 9.964 0 0 0 529.888 34.6 Q 529.589 33.769 529.155 33.116 A 5.58 5.58 0 0 0 528.85 32.7 Q 527.877 31.495 525.917 31.407 A 7.031 7.031 0 0 0 525.6 31.4 Q 524 31.4 522.5 32.15 A 23.034 23.034 0 0 0 519.863 33.688 A 21.181 21.181 0 0 0 519.7 33.8 L 519.7 70.3 Q 521 71.2 522.55 71.8 Q 524.1 72.4 525.7 72.4 A 5.28 5.28 0 0 0 526.963 72.258 A 3.357 3.357 0 0 0 528.95 70.95 A 6.605 6.605 0 0 0 529.735 69.49 Q 530.153 68.428 530.35 67.05 Q 530.7 64.6 530.7 61.7 Z M 147.3 62.7 L 147.3 41.5 Q 147.3 38.8 147 36.6 A 9 9 0 0 0 146.644 35.011 Q 146.34 34.086 145.841 33.37 A 5.334 5.334 0 0 0 145.6 33.05 Q 144.586 31.805 142.551 31.708 A 7.376 7.376 0 0 0 142.2 31.7 A 6.208 6.208 0 0 0 140.91 31.825 Q 140.122 31.993 139.533 32.385 A 3.291 3.291 0 0 0 138.8 33.05 A 6.174 6.174 0 0 0 137.843 34.724 Q 137.556 35.46 137.395 36.337 A 11.025 11.025 0 0 0 137.35 36.6 A 27.355 27.355 0 0 0 137.077 39.079 A 36.512 36.512 0 0 0 137 41.5 L 137 62.7 A 36.287 36.287 0 0 0 137.105 65.519 A 28.083 28.083 0 0 0 137.35 67.65 Q 137.7 69.9 138.8 71.2 A 3.447 3.447 0 0 0 140.445 72.26 Q 141.02 72.44 141.72 72.485 A 7.485 7.485 0 0 0 142.2 72.5 Q 143.8 72.5 144.819 71.871 A 3.255 3.255 0 0 0 145.6 71.2 Q 146.7 69.9 147 67.65 Q 147.3 65.4 147.3 62.7 Z M 412.5 62.7 L 412.5 41.5 Q 412.5 38.8 412.2 36.6 A 9 9 0 0 0 411.844 35.011 Q 411.54 34.086 411.041 33.37 A 5.334 5.334 0 0 0 410.8 33.05 Q 409.786 31.805 407.751 31.708 A 7.376 7.376 0 0 0 407.4 31.7 A 6.208 6.208 0 0 0 406.11 31.825 Q 405.322 31.993 404.733 32.385 A 3.291 3.291 0 0 0 404 33.05 A 6.174 6.174 0 0 0 403.043 34.724 Q 402.756 35.46 402.595 36.337 A 11.025 11.025 0 0 0 402.55 36.6 A 27.355 27.355 0 0 0 402.277 39.079 A 36.512 36.512 0 0 0 402.2 41.5 L 402.2 62.7 A 36.287 36.287 0 0 0 402.305 65.519 A 28.083 28.083 0 0 0 402.55 67.65 Q 402.9 69.9 404 71.2 A 3.447 3.447 0 0 0 405.645 72.26 Q 406.22 72.44 406.92 72.485 A 7.485 7.485 0 0 0 407.4 72.5 Q 409 72.5 410.019 71.871 A 3.255 3.255 0 0 0 410.8 71.2 Q 411.9 69.9 412.2 67.65 Q 412.5 65.4 412.5 62.7 Z M 458 62.7 L 458 41.5 Q 458 38.8 457.7 36.6 A 9 9 0 0 0 457.344 35.011 Q 457.04 34.086 456.541 33.37 A 5.334 5.334 0 0 0 456.3 33.05 Q 455.286 31.805 453.251 31.708 A 7.376 7.376 0 0 0 452.9 31.7 A 6.208 6.208 0 0 0 451.61 31.825 Q 450.822 31.993 450.233 32.385 A 3.291 3.291 0 0 0 449.5 33.05 A 6.174 6.174 0 0 0 448.543 34.724 Q 448.256 35.46 448.095 36.337 A 11.025 11.025 0 0 0 448.05 36.6 A 27.355 27.355 0 0 0 447.777 39.079 A 36.512 36.512 0 0 0 447.7 41.5 L 447.7 62.7 A 36.287 36.287 0 0 0 447.805 65.519 A 28.083 28.083 0 0 0 448.05 67.65 Q 448.4 69.9 449.5 71.2 A 3.447 3.447 0 0 0 451.145 72.26 Q 451.72 72.44 452.42 72.485 A 7.485 7.485 0 0 0 452.9 72.5 Q 454.5 72.5 455.519 71.871 A 3.255 3.255 0 0 0 456.3 71.2 Q 457.4 69.9 457.7 67.65 Q 458 65.4 458 62.7 Z M 576.4 62.7 L 576.4 41.5 Q 576.4 38.8 576.1 36.6 A 9 9 0 0 0 575.744 35.011 Q 575.44 34.086 574.941 33.37 A 5.334 5.334 0 0 0 574.7 33.05 Q 573.686 31.805 571.651 31.708 A 7.376 7.376 0 0 0 571.3 31.7 A 6.208 6.208 0 0 0 570.01 31.825 Q 569.222 31.993 568.633 32.385 A 3.291 3.291 0 0 0 567.9 33.05 A 6.174 6.174 0 0 0 566.943 34.724 Q 566.656 35.46 566.495 36.337 A 11.025 11.025 0 0 0 566.45 36.6 A 27.355 27.355 0 0 0 566.177 39.079 A 36.512 36.512 0 0 0 566.1 41.5 L 566.1 62.7 A 36.287 36.287 0 0 0 566.205 65.519 A 28.083 28.083 0 0 0 566.45 67.65 Q 566.8 69.9 567.9 71.2 A 3.447 3.447 0 0 0 569.545 72.26 Q 570.12 72.44 570.82 72.485 A 7.485 7.485 0 0 0 571.3 72.5 Q 572.9 72.5 573.919 71.871 A 3.255 3.255 0 0 0 574.7 71.2 Q 575.8 69.9 576.1 67.65 Q 576.4 65.4 576.4 62.7 Z M 24.2 18.9 L 18.7 52.9 L 29.7 52.9 L 24.2 18.9 Z M 241.3 42 L 241.3 46 L 251.5 46 L 251.5 40.5 A 29.922 29.922 0 0 0 251.451 38.737 Q 251.397 37.83 251.285 37.058 A 12.146 12.146 0 0 0 251 35.65 Q 250.5 33.8 249.4 32.95 A 3.689 3.689 0 0 0 248.218 32.354 Q 247.703 32.195 247.082 32.136 A 8.194 8.194 0 0 0 246.3 32.1 Q 244.696 32.1 243.648 32.815 A 3.545 3.545 0 0 0 243.4 33 A 3.71 3.71 0 0 0 242.585 33.962 Q 242.091 34.778 241.8 36 A 14.415 14.415 0 0 0 241.539 37.468 Q 241.334 39.045 241.305 41.259 A 56.832 56.832 0 0 0 241.3 42 Z" vector-effect="non-scaling-stroke"/></g></svg>